<?xml version="1.0" encoding="UTF-8" standalone="no"?>
<!DOCTYPE svg PUBLIC "-//W3C//DTD SVG 1.1//EN"
 "http://www.w3.org/Graphics/SVG/1.1/DTD/svg11.dtd">
<!-- Generated by graphviz version 2.26.3 (20100126.1600)
 -->
<!-- Title: G Pages: 1 -->
<svg width="484pt" height="1156pt"
 viewBox="0.00 0.00 484.00 1156.00" xmlns="http://www.w3.org/2000/svg" xmlns:xlink="http://www.w3.org/1999/xlink">
<g id="graph1" class="graph" transform="scale(1 1) rotate(0) translate(4 1152)">
<title>G</title>
<polygon fill="white" stroke="white" points="-4,5 -4,-1152 481,-1152 481,5 -4,5"/>
<g id="graph2" class="cluster"><title>cluster_default</title>
<polyline fill="none" stroke="none" points="20,-8 456,-8 "/>
<path fill="none" stroke="none" d="M456,-8C462,-8 468,-14 468,-20"/>
<polyline fill="none" stroke="none" points="468,-20 468,-1128 "/>
<path fill="none" stroke="none" d="M468,-1128C468,-1134 462,-1140 456,-1140"/>
<polyline fill="none" stroke="none" points="456,-1140 20,-1140 "/>
<path fill="none" stroke="none" d="M20,-1140C14,-1140 8,-1134 8,-1128"/>
<polyline fill="none" stroke="none" points="8,-1128 8,-20 "/>
<path fill="none" stroke="none" d="M8,-20C8,-14 14,-8 20,-8"/>
</g>
<!-- \\HeaderController -->
<g id="node2" class="node"><title>\\HeaderController</title>
<a xlink:href="WebShop.control.ctrl_header.inc.html" xlink:title="HeaderController" target="_parent">
<polygon fill="none" stroke="black" points="422,-1132 298,-1132 298,-1096 422,-1096 422,-1132"/>
<text text-anchor="middle" x="360" y="-1111.1" font-family="Courier,monospace" font-size="11.00">HeaderController</text>
</a>
</g>
<!-- \\PageController -->
<g id="node3" class="node"><title>\\PageController</title>
<a xlink:href="WebShop.admin.control.ctrl_admin_settings.inc.html" xlink:title="PageController" target="_parent">
<polygon fill="none" stroke="black" points="415,-1078 305,-1078 305,-1042 415,-1042 415,-1078"/>
<text text-anchor="middle" x="360" y="-1057.1" font-family="Courier,monospace" font-size="11.00">PageController</text>
</a>
</g>
<!-- \\BasePageController -->
<g id="node6" class="node"><title>\\BasePageController</title>
<a xlink:href="WebShop.control.ctrl_base_controller.inc.html" xlink:title="BasePageController" target="_parent">
<polygon fill="none" stroke="black" points="171,-1078 33,-1078 33,-1042 171,-1042 171,-1078"/>
<text text-anchor="middle" x="102" y="-1057.1" font-family="Courier,monospace" font-size="11.00">BasePageController</text>
</a>
</g>
<!-- \\PageController&#45;&gt;\\BasePageController -->
<g id="edge3" class="edge"><title>\\PageController&#45;&gt;\\BasePageController</title>
<path fill="none" stroke="black" d="M304.335,-1060C268.496,-1060 221.347,-1060 181.581,-1060"/>
<polygon fill="none" stroke="black" points="181.376,-1056.5 171.376,-1060 181.376,-1063.5 181.376,-1056.5"/>
</g>
<!-- \\ProductNaviController -->
<g id="node4" class="node"><title>\\ProductNaviController</title>
<a xlink:href="WebShop.control.ctrl_product_navi.inc.html" xlink:title="ProductNaviController" target="_parent">
<polygon fill="none" stroke="black" points="439,-1024 281,-1024 281,-988 439,-988 439,-1024"/>
<text text-anchor="middle" x="360" y="-1003.1" font-family="Courier,monospace" font-size="11.00">ProductNaviController</text>
</a>
</g>
<!-- \\ShoppingCartBlockController -->
<g id="node5" class="node"><title>\\ShoppingCartBlockController</title>
<a xlink:href="WebShop.control.ctrl_shopping_cart_block.inc.html" xlink:title="ShoppingCartBlockController" target="_parent">
<polygon fill="none" stroke="black" points="459,-970 261,-970 261,-934 459,-934 459,-970"/>
<text text-anchor="middle" x="360" y="-949.1" font-family="Courier,monospace" font-size="11.00">ShoppingCartBlockController</text>
</a>
</g>
<!-- \\ProductFormController -->
<g id="node7" class="node"><title>\\ProductFormController</title>
<a xlink:href="WebShop.admin.control.ctrl_admin_product.inc.html" xlink:title="ProductFormController" target="_parent">
<polygon fill="none" stroke="black" points="439,-916 281,-916 281,-880 439,-880 439,-916"/>
<text text-anchor="middle" x="360" y="-895.1" font-family="Courier,monospace" font-size="11.00">ProductFormController</text>
</a>
</g>
<!-- \\AdminBaseFormController -->
<g id="node8" class="node"><title>\\AdminBaseFormController</title>
<a xlink:href="WebShop.admin.control.ctrl_admin_base_form.inc.html" xlink:title="AdminBaseFormController" target="_parent">
<polygon fill="none" stroke="black" points="188,-916 16,-916 16,-880 188,-880 188,-916"/>
<text text-anchor="middle" x="102" y="-895.1" font-family="Courier,monospace" font-size="11.00">AdminBaseFormController</text>
</a>
</g>
<!-- \\ProductFormController&#45;&gt;\\AdminBaseFormController -->
<g id="edge21" class="edge"><title>\\ProductFormController&#45;&gt;\\AdminBaseFormController</title>
<path fill="none" stroke="black" d="M280.838,-898C254.832,-898 225.632,-898 198.487,-898"/>
<polygon fill="none" stroke="black" points="198.195,-894.5 188.195,-898 198.195,-901.5 198.195,-894.5"/>
</g>
<!-- \\Trimmer -->
<g id="node9" class="node"><title>\\Trimmer</title>
<a xlink:href="WebShop.lib.common.Trimmer.html" xlink:title="Trimmer" target="_parent">
<polygon fill="none" stroke="black" points="392,-862 328,-862 328,-826 392,-826 392,-862"/>
<text text-anchor="middle" x="360" y="-841.1" font-family="Courier,monospace" font-size="11.00">Trimmer</text>
</a>
</g>
<!-- \\DBConnection -->
<g id="node10" class="node"><title>\\DBConnection</title>
<a xlink:href="WebShop.lib.common.DBConnection.html" xlink:title="DBConnection" target="_parent">
<polygon fill="none" stroke="black" points="409,-808 311,-808 311,-772 409,-772 409,-808"/>
<text text-anchor="middle" x="360" y="-787.1" font-family="Courier,monospace" font-size="11.00">DBConnection</text>
</a>
</g>
<!-- \\Evaluation -->
<g id="node11" class="node"><title>\\Evaluation</title>
<a xlink:href="WebShop.lib.common.Evaluation.html" xlink:title="Evaluation" target="_parent">
<polygon fill="none" stroke="black" points="402,-754 318,-754 318,-718 402,-718 402,-754"/>
<text text-anchor="middle" x="360" y="-733.1" font-family="Courier,monospace" font-size="11.00">Evaluation</text>
</a>
</g>
<!-- \\Product -->
<g id="node12" class="node"><title>\\Product</title>
<a xlink:href="WebShop.lib.model.Product.html" xlink:title="Product" target="_parent">
<polygon fill="none" stroke="black" points="392,-700 328,-700 328,-664 392,-664 392,-700"/>
<text text-anchor="middle" x="360" y="-679.1" font-family="Courier,monospace" font-size="11.00">Product</text>
</a>
</g>
<!-- \\Shopping_cart -->
<g id="node13" class="node"><title>\\Shopping_cart</title>
<a xlink:href="WebShop.lib.model.Shopping_cart.html" xlink:title="Shopping_cart" target="_parent">
<polygon fill="none" stroke="black" points="412,-646 308,-646 308,-610 412,-610 412,-646"/>
<text text-anchor="middle" x="360" y="-625.1" font-family="Courier,monospace" font-size="11.00">Shopping_cart</text>
</a>
</g>
<!-- \\Customer_order -->
<g id="node14" class="node"><title>\\Customer_order</title>
<a xlink:href="WebShop.lib.model.Customer_order.html" xlink:title="Customer_order" target="_parent">
<polygon fill="none" stroke="black" points="415,-592 305,-592 305,-556 415,-556 415,-592"/>
<text text-anchor="middle" x="360" y="-571.1" font-family="Courier,monospace" font-size="11.00">Customer_order</text>
</a>
</g>
<!-- \\Product_group -->
<g id="node15" class="node"><title>\\Product_group</title>
<a xlink:href="WebShop.lib.model.Product_group.html" xlink:title="Product_group" target="_parent">
<polygon fill="none" stroke="black" points="412,-538 308,-538 308,-502 412,-502 412,-538"/>
<text text-anchor="middle" x="360" y="-517.1" font-family="Courier,monospace" font-size="11.00">Product_group</text>
</a>
</g>
<!-- \\Admin -->
<g id="node16" class="node"><title>\\Admin</title>
<a xlink:href="WebShop.lib.model.Shop_admin.html" xlink:title="Admin" target="_parent">
<polygon fill="none" stroke="black" points="387,-484 333,-484 333,-448 387,-448 387,-484"/>
<text text-anchor="middle" x="360" y="-463.1" font-family="Courier,monospace" font-size="11.00">Admin</text>
</a>
</g>
<!-- \\Customer -->
<g id="node17" class="node"><title>\\Customer</title>
<a xlink:href="WebShop.lib.model.Customer.html" xlink:title="Customer" target="_parent">
<polygon fill="none" stroke="black" points="395,-430 325,-430 325,-394 395,-394 395,-430"/>
<text text-anchor="middle" x="360" y="-409.1" font-family="Courier,monospace" font-size="11.00">Customer</text>
</a>
</g>
<!-- \\ProductDAO -->
<g id="node18" class="node"><title>\\ProductDAO</title>
<a xlink:href="WebShop.lib.dao.ProductDAO.html" xlink:title="ProductDAO" target="_parent">
<polygon fill="none" stroke="black" points="402,-376 318,-376 318,-340 402,-340 402,-376"/>
<text text-anchor="middle" x="360" y="-355.1" font-family="Courier,monospace" font-size="11.00">ProductDAO</text>
</a>
</g>
<!-- \\Shop_adminDAO -->
<g id="node19" class="node"><title>\\Shop_adminDAO</title>
<a xlink:href="WebShop.lib.dao.Shop_adminDAO.html" xlink:title="Shop_adminDAO" target="_parent">
<polygon fill="none" stroke="black" points="412,-322 308,-322 308,-286 412,-286 412,-322"/>
<text text-anchor="middle" x="360" y="-301.1" font-family="Courier,monospace" font-size="11.00">Shop_adminDAO</text>
</a>
</g>
<!-- \\User_accountDAO -->
<g id="node20" class="node"><title>\\User_accountDAO</title>
<a xlink:href="WebShop.lib.dao.User_accountDAO.html" xlink:title="User_accountDAO" target="_parent">
<polygon fill="none" stroke="black" points="419,-268 301,-268 301,-232 419,-232 419,-268"/>
<text text-anchor="middle" x="360" y="-247.1" font-family="Courier,monospace" font-size="11.00">User_accountDAO</text>
</a>
</g>
<!-- \\Product_groupDAO -->
<g id="node21" class="node"><title>\\Product_groupDAO</title>
<a xlink:href="WebShop.lib.dao.Product_groupDAO.html" xlink:title="Product_groupDAO" target="_parent">
<polygon fill="none" stroke="black" points="422,-214 298,-214 298,-178 422,-178 422,-214"/>
<text text-anchor="middle" x="360" y="-193.1" font-family="Courier,monospace" font-size="11.00">Product_groupDAO</text>
</a>
</g>
<!-- \\CustomerDAO -->
<g id="node22" class="node"><title>\\CustomerDAO</title>
<a xlink:href="WebShop.lib.dao.CustomerDAO.html" xlink:title="CustomerDAO" target="_parent">
<polygon fill="none" stroke="black" points="405,-160 315,-160 315,-124 405,-124 405,-160"/>
<text text-anchor="middle" x="360" y="-139.1" font-family="Courier,monospace" font-size="11.00">CustomerDAO</text>
</a>
</g>
<!-- \\Customer_orderDAO -->
<g id="node23" class="node"><title>\\Customer_orderDAO</title>
<a xlink:href="WebShop.lib.dao.Customer_orderDAO.html" xlink:title="Customer_orderDAO" target="_parent">
<polygon fill="none" stroke="black" points="425,-106 295,-106 295,-70 425,-70 425,-106"/>
<text text-anchor="middle" x="360" y="-85.1" font-family="Courier,monospace" font-size="11.00">Customer_orderDAO</text>
</a>
</g>
<!-- \\Email_logic -->
<g id="node24" class="node"><title>\\Email_logic</title>
<a xlink:href="WebShop.lib.logic.Email_logic.html" xlink:title="Email_logic" target="_parent">
<polygon fill="none" stroke="black" points="405,-52 315,-52 315,-16 405,-16 405,-52"/>
<text text-anchor="middle" x="360" y="-31.1" font-family="Courier,monospace" font-size="11.00">Email_logic</text>
</a>
</g>
</g>
</svg>
